<svg width="24" height="14" viewBox="0 0 24 14" xmlns="http://www.w3.org/2000/svg">
<path fill-rule="evenodd" clip-rule="evenodd" d="M16.2908 0.293723C16.3837 0.200617 16.494 0.126747 16.6155 0.076345C16.737 0.0259431 16.8672 0 16.9987 0C17.1303 0 17.2605 0.0259431 17.382 0.076345C17.5035 0.126747 17.6138 0.200617 17.7067 0.293723L23.7062 6.29242C23.7994 6.38529 23.8732 6.49562 23.9236 6.61708C23.9741 6.73854 24 6.86876 24 7.00026C24 7.13177 23.9741 7.26198 23.9236 7.38345C23.8732 7.50491 23.7994 7.61524 23.7062 7.70811L17.7067 13.7068C17.5189 13.8945 17.2643 14 16.9987 14C16.7332 14 16.4785 13.8945 16.2908 13.7068C16.103 13.5191 15.9975 13.2644 15.9975 12.999C15.9975 12.7335 16.103 12.4788 16.2908 12.2911L21.5844 7.00026L16.2908 1.70941C16.1977 1.61654 16.1238 1.50622 16.0734 1.38475C16.023 1.26329 15.997 1.13307 15.997 1.00157C15.997 0.870063 16.023 0.739849 16.0734 0.618385C16.1238 0.496921 16.1977 0.386594 16.2908 0.293723Z"/>
<path fill-rule="evenodd" clip-rule="evenodd" d="M0 7.00027C0 6.73511 0.105349 6.48082 0.292872 6.29332C0.480394 6.10582 0.734729 6.00049 0.999926 6.00049H21.9984C22.2636 6.00049 22.5179 6.10582 22.7054 6.29332C22.8929 6.48082 22.9983 6.73511 22.9983 7.00027C22.9983 7.26543 22.8929 7.51973 22.7054 7.70723C22.5179 7.89472 22.2636 8.00005 21.9984 8.00005H0.999926C0.734729 8.00005 0.480394 7.89472 0.292872 7.70723C0.105349 7.51973 0 7.26543 0 7.00027Z"/>
</svg>
