<svg width="98" height="90" viewBox="0 0 98 90" fill="none" xmlns="http://www.w3.org/2000/svg">
<path fill-rule="evenodd" clip-rule="evenodd" d="M90.2956 44.1532C90.2236 40.1933 89.6338 36.3635 88.6123 32.736C88.454 32.158 88.2814 31.5943 88.0943 31.0307C87.7059 29.8167 87.2599 28.6172 86.7707 27.461C86.4254 26.6517 86.6268 27.0419 86.2384 26.2615L97.7625 11.925L35.3221 53.7349C34.8761 54.0529 32.7612 55.4836 31.0203 56.6831C30.5168 57.03 26.6035 59.429 29.7255 59.3568C46.688 58.9955 50.0834 59.2412 67.0459 59.1255C67.3912 59.1255 68.0961 59.1111 68.3119 58.5619C68.5277 57.9983 68.0098 57.5214 67.7508 57.2901L57.651 48.1564L63.5929 42.7513L74.1388 52.8389C77.6924 56.1773 76.8723 59.6025 76.1242 61.5679C74.4697 65.918 71.1606 66.6406 68.8443 66.7129C47.7095 67.3054 40.3576 67.5222 19.2372 67.9702C14.7484 68.0714 12.8493 65.5134 13.9571 61.0043C15.0218 56.712 18.8775 55.1657 21.4529 53.6338L46.6736 38.6614L14.9642 12.2864C6.10172 20.6686 0.66336 32.6349 0.907942 45.8152C1.36833 70.6149 21.7406 90.342 46.429 89.8796C71.1174 89.4171 90.756 68.953 90.2956 44.1532Z" fill="#000066"/>
<path fill-rule="evenodd" clip-rule="evenodd" d="M81.225 17.7167C72.9428 6.7809 59.8627 -0.155795 45.2689 0.12051C37.0725 0.280475 29.4614 2.67996 22.95 6.75181L54.6506 33.9751L81.225 17.7167Z" fill="#FF6600"/>
</svg>
