<svg width="17" height="16" viewBox="0 0 17 16" fill="none" xmlns="http://www.w3.org/2000/svg">
<path fill-rule="evenodd" clip-rule="evenodd" d="M11.0401 10.442C11.133 10.349 11.2433 10.2752 11.3646 10.2249C11.486 10.1746 11.6162 10.1487 11.7476 10.1487C11.879 10.1487 12.0091 10.1746 12.1305 10.2249C12.2519 10.2752 12.3622 10.349 12.4551 10.442L16.3051 14.292C16.4927 14.4795 16.5982 14.7338 16.5983 14.9991C16.5984 15.2644 16.4931 15.5188 16.3056 15.7065C16.1181 15.8941 15.8637 15.9996 15.5984 15.9997C15.3332 15.9998 15.0787 15.8945 14.8911 15.707L11.0411 11.857C10.9481 11.7641 10.8744 11.6538 10.824 11.5324C10.7737 11.411 10.7478 11.2809 10.7478 11.1495C10.7478 11.0181 10.7737 10.8879 10.824 10.7665C10.8744 10.6451 10.9481 10.5348 11.0411 10.442H11.0401Z" fill="#6C757D"/>
<path fill-rule="evenodd" clip-rule="evenodd" d="M7.09814 12C7.82042 12 8.53561 11.8577 9.2029 11.5813C9.87019 11.3049 10.4765 10.8998 10.9872 10.3891C11.498 9.87837 11.9031 9.27205 12.1795 8.60476C12.4559 7.93747 12.5981 7.22227 12.5981 6.5C12.5981 5.77773 12.4559 5.06253 12.1795 4.39524C11.9031 3.72795 11.498 3.12163 10.9872 2.61091C10.4765 2.10019 9.87019 1.69506 9.2029 1.41866C8.53561 1.14226 7.82042 1 7.09814 1C5.63945 1 4.24051 1.57946 3.20906 2.61091C2.17761 3.64236 1.59814 5.04131 1.59814 6.5C1.59814 7.95869 2.17761 9.35764 3.20906 10.3891C4.24051 11.4205 5.63945 12 7.09814 12ZM13.5981 6.5C13.5981 8.22391 12.9133 9.87721 11.6943 11.0962C10.4754 12.3152 8.82205 13 7.09814 13C5.37424 13 3.72094 12.3152 2.50195 11.0962C1.28296 9.87721 0.598145 8.22391 0.598145 6.5C0.598145 4.77609 1.28296 3.12279 2.50195 1.90381C3.72094 0.684819 5.37424 0 7.09814 0C8.82205 0 10.4754 0.684819 11.6943 1.90381C12.9133 3.12279 13.5981 4.77609 13.5981 6.5Z" fill="#6C757D"/>
</svg>
