<svg width="413" height="381" viewBox="0 0 413 381" fill="none" xmlns="http://www.w3.org/2000/svg">
<g opacity="0.03">
<path fill-rule="evenodd" clip-rule="evenodd" d="M381.163 186.975C380.856 170.175 378.341 153.927 373.985 138.538C373.311 136.086 372.574 133.694 371.777 131.303C370.121 126.153 368.219 121.064 366.133 116.159C364.661 112.726 365.52 114.381 363.864 111.07L413 50.2487L146.768 227.625C144.866 228.973 135.849 235.043 128.426 240.132C126.279 241.604 109.594 251.782 122.905 251.475C195.23 249.942 209.707 250.985 282.031 250.494C283.503 250.494 286.509 250.433 287.429 248.103C288.349 245.712 286.141 243.688 285.037 242.707L241.974 203.958L267.309 181.027L312.274 223.823C327.425 237.986 323.929 252.517 320.739 260.856C313.684 279.311 299.575 282.376 289.699 282.683C199.585 285.197 168.238 286.116 78.1857 288.017C59.0465 288.446 50.9491 277.594 55.6726 258.465C60.212 240.255 76.6521 233.695 87.6327 227.195L195.168 163.676L59.9666 51.7815C22.1789 87.3425 -1.00909 138.109 0.033758 194.026C1.99676 299.237 88.8595 382.928 194.125 380.966C299.391 379.004 383.126 292.186 381.163 186.975Z" fill="white"/>
<path fill-rule="evenodd" clip-rule="evenodd" d="M341.534 74.2212C305.955 28.1145 249.764 -1.13137 187.071 0.0335641C151.859 0.707997 119.163 10.8245 91.1905 27.9919L227.374 142.768L341.534 74.2212Z" fill="white"/>
</g>
</svg>
