<svg width="13" height="12" viewBox="0 0 13 12"  xmlns="http://www.w3.org/2000/svg">
<path fill-rule="evenodd" clip-rule="evenodd" d="M1.91388 0.383398C2.04506 0.252181 2.20265 0.150362 2.37618 0.0846955C2.54971 0.019029 2.73521 -0.00898363 2.92039 0.00251582C3.10557 0.0140153 3.28619 0.064764 3.45026 0.151395C3.61434 0.238027 3.75812 0.35856 3.87206 0.505L5.21672 2.23463C5.46389 2.55143 5.55108 2.96504 5.45349 3.35464L5.04314 4.99707C5.0218 5.08229 5.02288 5.17159 5.04629 5.25627C5.0697 5.34095 5.11464 5.41812 5.17672 5.48027L7.01972 7.3227C7.08187 7.38479 7.15903 7.42973 7.2437 7.45315C7.32837 7.47656 7.41766 7.47765 7.50287 7.4563L9.14429 7.0459C9.33682 6.99781 9.53776 6.99413 9.73191 7.03516C9.92606 7.07619 10.1083 7.16083 10.265 7.2827L11.9944 8.62752C12.6159 9.11073 12.6735 10.0299 12.1168 10.5859L11.3409 11.362C10.7865 11.9164 9.957 12.1604 9.18349 11.8884C7.20483 11.1918 5.40834 10.0587 3.92726 8.57312C2.44153 7.09193 1.3083 5.29522 0.611619 3.31624C0.339649 2.54263 0.583622 1.71302 1.13796 1.15781L1.91388 0.382598V0.383398Z" />
</svg>
