<svg width="18" height="10" viewBox="0 0 18 10" fill="none" xmlns="http://www.w3.org/2000/svg">
<path fill-rule="evenodd" clip-rule="evenodd" d="M1.05749 0.80764C1.11555 0.749436 1.18451 0.703258 1.26045 0.671749C1.33638 0.640241 1.41778 0.624023 1.49999 0.624023C1.5822 0.624023 1.6636 0.640241 1.73953 0.671749C1.81546 0.703258 1.88443 0.749436 1.94249 0.80764L8.99999 7.86639L16.0575 0.80764C16.1156 0.74953 16.1846 0.703435 16.2605 0.671986C16.3364 0.640537 16.4178 0.624351 16.5 0.624351C16.5822 0.624351 16.6635 0.640537 16.7395 0.671986C16.8154 0.703435 16.8844 0.74953 16.9425 0.80764C17.0006 0.86575 17.0467 0.934737 17.0781 1.01066C17.1096 1.08659 17.1258 1.16796 17.1258 1.25014C17.1258 1.33232 17.1096 1.4137 17.0781 1.48962C17.0467 1.56554 17.0006 1.63453 16.9425 1.69264L9.44249 9.19264C9.38443 9.25084 9.31546 9.29702 9.23953 9.32853C9.1636 9.36004 9.0822 9.37626 8.99999 9.37626C8.91778 9.37626 8.83638 9.36004 8.76045 9.32853C8.68452 9.29702 8.61555 9.25084 8.55749 9.19264L1.05749 1.69264C0.999284 1.63458 0.953106 1.56561 0.921597 1.48968C0.890089 1.41375 0.873871 1.33235 0.873871 1.25014C0.873871 1.16793 0.890089 1.08653 0.921597 1.0106C0.953106 0.934667 0.999284 0.865697 1.05749 0.80764Z" />
</svg>
