<svg width="98" height="90" fill="none" xmlns="http://www.w3.org/2000/svg"><path fill-rule="evenodd" clip-rule="evenodd" d="M90.296 44.153a45.12 45.12 0 00-1.684-11.417 33.362 33.362 0 00-.518-1.705 42.179 42.179 0 00-1.323-3.57c-.346-.81-.144-.42-.533-1.2l11.525-14.336-62.44 41.81c-.447.318-2.562 1.749-4.303 2.948-.503.347-4.416 2.746-1.294 2.674 16.962-.361 20.357-.116 37.32-.231.345 0 1.05-.015 1.266-.564.216-.564-.302-1.04-.561-1.272l-10.1-9.134 5.942-5.405L74.139 52.84c3.553 3.338 2.733 6.764 1.985 8.729-1.654 4.35-4.963 5.073-7.28 5.145-21.134.592-28.486.81-49.607 1.257-4.489.101-6.388-2.457-5.28-6.966 1.065-4.292 4.92-5.838 7.496-7.37l25.22-14.973-31.709-26.375C6.102 20.67.664 32.635.908 45.816c.46 24.799 20.833 44.526 45.521 44.064 24.688-.463 44.327-20.927 43.867-45.727z" fill="#006"/><path fill-rule="evenodd" clip-rule="evenodd" d="M81.225 17.717C72.943 6.78 59.863-.156 45.269.12A43.504 43.504 0 0022.95 6.75l31.7 27.224 26.575-16.258z" fill="#F60"/></svg>