<svg width="413" height="381" fill="none" xmlns="http://www.w3.org/2000/svg"><g opacity=".03" fill-rule="evenodd" clip-rule="evenodd" fill="#fff"><path d="M381.163 186.975a190.506 190.506 0 00-7.178-48.437 140.842 140.842 0 00-2.208-7.235 178.324 178.324 0 00-5.644-15.144c-1.472-3.433-.613-1.778-2.269-5.089L413 50.249 146.768 227.625c-1.902 1.348-10.919 7.418-18.342 12.507-2.147 1.472-18.832 11.65-5.521 11.343 72.325-1.533 86.802-.49 159.126-.981 1.472 0 4.478-.061 5.398-2.391.92-2.391-1.288-4.415-2.392-5.396l-43.063-38.749 25.335-22.931 44.965 42.796c15.151 14.163 11.655 28.694 8.465 37.033-7.055 18.455-21.164 21.52-31.04 21.827-90.114 2.514-121.461 3.433-211.513 5.334-19.14.429-27.237-10.423-22.513-29.552 4.539-18.21 20.98-24.77 31.96-31.27l107.535-63.519L59.967 51.782C22.179 87.341-1.01 138.108.034 194.025c1.963 105.211 88.825 188.902 194.091 186.94 105.266-1.962 189.001-88.78 187.038-193.991z"/><path d="M341.534 74.221C305.955 28.114 249.764-1.13 187.071.034c-35.212.674-67.908 10.79-95.88 27.958l136.183 114.776 114.16-68.547z"/></g></svg>