<?xml version="1.0" encoding="utf-8"?><svg viewBox="0 0 413 381" xmlns="http://www.w3.org/2000/svg" xmlns:xlink="http://www.w3.org/1999/xlink"><style>:root>svg{display:none}:root>svg:target{display:block}</style><svg viewBox="0 0 24 14" id="arrow-r" xmlns="http://www.w3.org/2000/svg"><path fill-rule="evenodd" clip-rule="evenodd" d="M16.29.294a1 1 0 011.417 0l6 5.998a.998.998 0 010 1.416l-6 5.999a1.001 1.001 0 01-1.416-1.416l5.293-5.29-5.293-5.292a1 1 0 010-1.415z"/><path fill-rule="evenodd" clip-rule="evenodd" d="M0 7a1 1 0 011-1h20.998a1 1 0 110 2H1a1 1 0 01-1-1z"/></svg><svg viewBox="0 0 20 20" id="close" xmlns="http://www.w3.org/2000/svg"><path d="M11.105 10l8.666-8.666A.781.781 0 1018.666.23L10 8.896 1.333.23A.781.781 0 10.23 1.334l8.666 8.667-8.666 8.666a.781.781 0 101.105 1.105L10 11.106l8.666 8.666a.779.779 0 001.105 0 .781.781 0 000-1.105l-8.666-8.666z"/></svg><svg fill="none" viewBox="0 0 98 90" id="logo" xmlns="http://www.w3.org/2000/svg"><path fill-rule="evenodd" clip-rule="evenodd" d="M90.296 44.153a45.12 45.12 0 00-1.684-11.417 33.362 33.362 0 00-.518-1.705 42.179 42.179 0 00-1.323-3.57c-.346-.81-.144-.42-.533-1.2l11.525-14.336-62.44 41.81c-.447.318-2.562 1.749-4.303 2.948-.503.347-4.416 2.746-1.294 2.674 16.962-.361 20.357-.116 37.32-.231.345 0 1.05-.015 1.266-.564.216-.564-.302-1.04-.561-1.272l-10.1-9.134 5.942-5.405L74.139 52.84c3.553 3.338 2.733 6.764 1.985 8.729-1.654 4.35-4.963 5.073-7.28 5.145-21.134.592-28.486.81-49.607 1.257-4.489.101-6.388-2.457-5.28-6.966 1.065-4.292 4.92-5.838 7.496-7.37l25.22-14.973-31.709-26.375C6.102 20.67.664 32.635.908 45.816c.46 24.799 20.833 44.526 45.521 44.064 24.688-.463 44.327-20.927 43.867-45.727z" fill="#006"/><path fill-rule="evenodd" clip-rule="evenodd" d="M81.225 17.717C72.943 6.78 59.863-.156 45.269.12A43.504 43.504 0 0022.95 6.75l31.7 27.224 26.575-16.258z" fill="#F60"/></svg><svg fill="none" viewBox="0 0 17 16" id="magnifying" xmlns="http://www.w3.org/2000/svg"><path fill-rule="evenodd" clip-rule="evenodd" d="M11.04 10.442a1 1 0 011.415 0l3.85 3.85a1 1 0 01-1.414 1.415l-3.85-3.85a1.001 1.001 0 010-1.415z" fill="#6C757D"/><path fill-rule="evenodd" clip-rule="evenodd" d="M7.098 12a5.5 5.5 0 100-11 5.5 5.5 0 000 11zm6.5-5.5a6.5 6.5 0 11-13 0 6.5 6.5 0 0113 0z" fill="#6C757D"/></svg><svg fill="none" viewBox="0 0 413 381" id="main-bg" xmlns="http://www.w3.org/2000/svg"><g opacity=".03" fill-rule="evenodd" clip-rule="evenodd" fill="#fff"><path d="M381.163 186.975a190.506 190.506 0 00-7.178-48.437 140.842 140.842 0 00-2.208-7.235 178.324 178.324 0 00-5.644-15.144c-1.472-3.433-.613-1.778-2.269-5.089L413 50.249 146.768 227.625c-1.902 1.348-10.919 7.418-18.342 12.507-2.147 1.472-18.832 11.65-5.521 11.343 72.325-1.533 86.802-.49 159.126-.981 1.472 0 4.478-.061 5.398-2.391.92-2.391-1.288-4.415-2.392-5.396l-43.063-38.749 25.335-22.931 44.965 42.796c15.151 14.163 11.655 28.694 8.465 37.033-7.055 18.455-21.164 21.52-31.04 21.827-90.114 2.514-121.461 3.433-211.513 5.334-19.14.429-27.237-10.423-22.513-29.552 4.539-18.21 20.98-24.77 31.96-31.27l107.535-63.519L59.967 51.782C22.179 87.341-1.01 138.108.034 194.025c1.963 105.211 88.825 188.902 194.091 186.94 105.266-1.962 189.001-88.78 187.038-193.991z"/><path d="M341.534 74.221C305.955 28.114 249.764-1.13 187.071.034c-35.212.674-67.908 10.79-95.88 27.958l136.183 114.776 114.16-68.547z"/></g></svg><svg viewBox="0 0 13 12" id="phone" xmlns="http://www.w3.org/2000/svg"><path fill-rule="evenodd" clip-rule="evenodd" d="M1.914.383a1.309 1.309 0 011.958.122l1.345 1.73c.247.316.334.73.236 1.12l-.41 1.642a.509.509 0 00.134.483L7.02 7.323a.509.509 0 00.483.133l1.641-.41a1.308 1.308 0 011.121.237l1.73 1.345c.62.483.679 1.402.122 1.958l-.776.776c-.554.554-1.384.798-2.158.526a13.976 13.976 0 01-5.256-3.315A13.976 13.976 0 01.612 3.316c-.272-.773-.028-1.603.526-2.158l.776-.775z"/></svg><svg fill="none" viewBox="0 0 18 10" id="shevron" xmlns="http://www.w3.org/2000/svg"><path clip-rule="evenodd" d="M1.057.808a.625.625 0 01.885 0L9 7.866 16.058.808a.626.626 0 11.884.885l-7.5 7.5a.625.625 0 01-.885 0l-7.5-7.5a.625.625 0 010-.885z"/></svg></svg>